<?xml version="1.0" encoding="iso-8859-1"?>
<!-- Generator: Adobe Illustrator 19.0.0, SVG Export Plug-In . SVG Version: 6.00 Build 0)  -->
<svg version="1.1" id="Layer_1" xmlns="http://www.w3.org/2000/svg" xmlns:xlink="http://www.w3.org/1999/xlink" x="0px" y="0px"
	 viewBox="0 0 512 512" style="enable-background:new 0 0 512 512;" xml:space="preserve">
<path style="fill:#F7B239;" d="M199.006,454.999h114.002c0,31.484-25.53,57.001-57.001,57.001
	C224.522,512,199.006,486.483,199.006,454.999z"/>
<path style="opacity:0.25;fill:#4D4D4D;enable-background:new    ;" d="M199.006,454.999h114.002
	c0,31.484-25.53,57.001-57.001,57.001C224.522,512,199.006,486.483,199.006,454.999z"/>
<path style="fill:#F95428;" d="M283.474,106.637v0.013c-8.875-1.851-18.065,45.998-27.481,45.998
	c-9.416,0-18.606-47.849-27.481-45.998V27.481c0-7.591,3.072-14.452,8.057-19.424C241.542,3.072,248.403,0,255.994,0
	c15.182,0,27.481,12.312,27.481,27.481L283.474,106.637L283.474,106.637z"/>
<path style="fill:#F7B239;" d="M445.312,418.757l-186.788,25.945L66.688,418.757h-0.013c0-14.313,2.417-28.4,7.075-41.718
	c4.645-13.319,11.506-25.869,20.406-37.073c17.8-22.408,27.481-50.178,27.481-78.791v-22.987c0-37.111,15.043-70.697,39.352-95.006
	c18.153-18.14,41.454-31.119,67.525-36.532c8.875-1.851,18.065-2.82,27.481-2.82c9.416,0,18.606,0.969,27.481,2.82
	c61.029,12.677,106.876,66.744,106.876,131.537v22.987c0,14.301,2.417,28.4,7.075,41.718c4.645,13.319,11.506,25.869,20.406,37.073
	C435.632,362.373,445.312,390.131,445.312,418.757z"/>
<path style="fill:#F95428;" d="M457.347,425.177c3.965,3.965,6.42,9.429,6.42,15.484c0,12.085-9.806,21.891-21.891,21.891H313.007
	H199.006H70.137c-6.055,0-11.518-2.455-15.484-6.42c-3.965-3.953-6.42-9.429-6.42-15.471c0-10.939,8.019-20.003,18.493-21.64
	c1.108-0.176,2.253-0.264,3.411-0.264h371.739c1.146,0,2.279,0.088,3.386,0.264C449.945,419.751,454.15,421.967,457.347,425.177z"/>
<g>
	<path style="opacity:0.25;fill:#4D4D4D;enable-background:new    ;" d="M457.347,425.177c-3.197-3.21-7.402-5.426-12.085-6.156
		c-1.108-0.176-2.241-0.264-3.386-0.264h-88.744c1.146,0,2.279,0.088,3.386,0.264c4.683,0.73,8.887,2.946,12.085,6.156
		c3.965,3.965,6.42,9.429,6.42,15.484c0,12.085-9.806,21.891-21.891,21.891h88.744c12.085,0,21.891-9.806,21.891-21.891
		C463.767,434.606,461.312,429.142,457.347,425.177z"/>
	<path style="opacity:0.25;fill:#4D4D4D;enable-background:new    ;" d="M417.832,339.965c-8.9-11.204-15.761-23.755-20.406-37.073
		c-4.658-13.319-7.075-27.418-7.075-41.718v-22.987c0-64.793-45.847-118.861-106.876-131.537c-8.875-1.851-18.065-2.82-27.481-2.82
		c-9.416,0-18.606,0.969-27.481,2.82c-2.309,0.48-4.589,1.039-6.852,1.635c57.57,15.17,100.02,67.561,100.02,129.902v22.987
		c0,14.301,2.417,28.4,7.075,41.718c4.645,13.319,11.506,25.869,20.406,37.073c17.8,22.408,27.481,50.165,27.481,78.792h68.67
		C445.312,390.131,435.632,362.373,417.832,339.965z"/>
</g>
<g>
</g>
<g>
</g>
<g>
</g>
<g>
</g>
<g>
</g>
<g>
</g>
<g>
</g>
<g>
</g>
<g>
</g>
<g>
</g>
<g>
</g>
<g>
</g>
<g>
</g>
<g>
</g>
<g>
</g>
</svg>
